Coordinates
datacolumns 6
datarows 139
range 0 1.38
inDegrees=yes
Units are S.I. units (second, meters, Newtons, ...)
If the header above contains a line with 'inDegrees', this indicates whether rotational values are in degrees (yes) or radians (no).
endheader
time	foot_tx	hip_flexion_r	knee_angle_r	ankle_angle_r	lumbar
0	0.27667684	65.11957601	-58.17050678	-5.53956079	-8.9147606
0.01	0.27668731	65.09365692	-58.20522396	-5.50159541	-8.89121774
0.02	0.27670425	65.06866943	-58.23707154	-5.46628157	-8.86840563
0.03	0.27672268	65.04596316	-58.26582859	-5.43437425	-8.84737582
0.04	0.27674198	65.02642658	-58.29057987	-5.40698334	-8.82882613
0.05	0.27675879	65.01061237	-58.31089818	-5.3844662	-8.8131768
0.06	0.27677975	64.99907652	-58.32676745	-5.36755717	-8.80046385
0.07	0.27679517	64.99165952	-58.33863721	-5.3551457	-8.79088515
0.08	0.27682742	64.98637907	-58.34107748	-5.35148517	-8.78547269
0.09	0.27681979	64.9875781	-58.35251847	-5.34240786	-8.78098771
0.1	0.27683613	64.98787728	-58.35282782	-5.34236284	-8.78104072
0.11	0.2768373	64.9931186	-58.35465145	-5.34228202	-8.78367999
0.12	0.27683671	64.99949787	-58.3564407	-5.34255327	-8.7869844
0.13	0.27682662	65.0079279	-58.35816297	-5.34277683	-8.79124156
0.14	0.27681615	65.01791721	-58.36009072	-5.34296137	-8.79601721
0.15	0.27680059	65.02934384	-58.36220223	-5.34258804	-8.80106595
0.16	0.27677988	65.04105403	-58.36408856	-5.34161671	-8.80672513
0.17	0.2767587	65.05369418	-58.3664178	-5.34008825	-8.81309992
0.18	0.27671895	65.11033284	-58.37521404	-5.33566179	-8.76676841
0.19	0.27669713	65.12234358	-58.37628739	-5.33418978	-8.77687063
0.2	0.27666284	65.13409476	-58.38262487	-5.32816703	-8.78855484
0.21	0.27664003	65.14731221	-58.38308025	-5.32628747	-8.80075531
0.22	0.27660336	65.15614973	-58.39017613	-5.31889775	-8.82076856
0.23	0.27659096	65.17127948	-58.38901457	-5.31833587	-8.83694005
0.24	0.27656703	65.14261544	-58.39162686	-5.31198081	-8.91012751
0.25	0.27656154	65.1634473	-58.38995323	-5.31236711	-8.92931412
0.26	0.27655886	65.18671806	-58.38876985	-5.31291944	-8.95251044
0.27	0.27657373	65.14710409	-58.38298361	-5.313658	-9.0598595
0.28	0.27657527	65.18053003	-58.38429014	-5.3140816	-9.08971834
0.29	0.27658411	65.21858852	-58.38613124	-5.3152937	-9.12566069
0.3	0.27658435	65.18793458	-58.39386467	-5.30878153	-9.25827749
0.31	0.27659859	65.24281676	-58.39647227	-5.31157969	-9.30557394
0.32	0.27661474	65.30543086	-58.4021556	-5.31355786	-9.36089376
0.33	0.27658889	65.32604964	-58.42369499	-5.30131225	-9.48883563
0.34	0.27658618	65.40974701	-58.44043879	-5.29716635	-9.56114144
0.35	0.27656827	65.50592911	-58.46235111	-5.28969931	-9.64453622
0.36	0.27653788	65.61649396	-58.48797223	-5.27975956	-9.73830266
0.37	0.27650149	65.74266662	-58.51598682	-5.26829209	-9.84098255
0.38	0.27645568	65.88637504	-58.54613188	-5.25496259	-9.95253207
0.39	0.27640083	66.04911953	-58.57750668	-5.23999498	-10.07245734
0.4	0.27633806	66.23236534	-58.60907423	-5.22371602	-10.20007726
0.41	0.27628319	66.48262431	-58.63423158	-5.21331961	-10.28014971
0.42	0.27622135	66.69321312	-58.65999477	-5.19704108	-10.44147803
0.43	0.27615277	66.96275065	-58.68293626	-5.18222266	-10.56729463
0.44	0.27609425	67.2080862	-58.69752415	-5.16792525	-10.75827255
0.45	0.27603059	67.47782346	-58.70996141	-5.15210136	-10.956265
0.46	0.27599641	67.75649439	-58.7050292	-5.14464043	-11.18154056
0.47	0.27593207	68.11799881	-58.70716856	-5.13162634	-11.34507985
0.48	0.27589542	68.43325234	-58.69602334	-5.12100163	-11.6037296
0.49	0.27585557	68.7692205	-58.68135659	-5.10885613	-11.87845793
0.5	0.27581802	69.12627593	-58.66214036	-5.09620794	-12.16984576
0.51	0.27582809	69.51287103	-58.62254674	-5.09570522	-12.46839727
0.52	0.27581035	69.94998729	-58.5873062	-5.0893046	-12.75192098
0.53	0.27581442	70.37375677	-58.54483946	-5.0835344	-13.09648552
0.54	0.27582024	70.82509686	-58.4972799	-5.07801862	-13.45596693
0.55	0.27582023	71.34596973	-58.44922624	-5.07228357	-13.77987061
0.56	0.27583364	71.85087477	-58.39603307	-5.06514919	-14.17162039
0.57	0.27582522	72.46033713	-58.34578848	-5.05660262	-14.48734391
0.58	0.27581937	73.08608324	-58.2931882	-5.04579071	-14.83233329
0.59	0.2758051	73.76026109	-58.24359557	-5.03039385	-15.16607562
0.6	0.27577266	74.49093407	-58.19950281	-5.00818059	-15.47764383
0.61	0.27571671	75.28140236	-58.15921823	-4.97900602	-15.76221405
0.62	0.2756485	76.13236168	-58.12365681	-4.94208087	-16.01349832
0.63	0.27556123	77.04680904	-58.09404158	-4.8951096	-16.22434672
0.64	0.27544772	78.02585997	-58.07432492	-4.83416296	-16.38782806
0.65	0.27532332	79.065545	-58.05993267	-4.7607513	-16.5033684
0.66	0.27517971	80.16574245	-58.05322669	-4.67129064	-16.56483483
0.67	0.27502836	81.32416822	-58.05406077	-4.56478449	-16.56739498
0.68	0.2748713	82.5332634	-58.06158647	-4.43965733	-16.51314823
0.69	0.27471249	83.78874262	-58.07641894	-4.2939756	-16.39949693
0.7	0.27457238	85.07177717	-58.09426278	-4.12934373	-16.24182227
0.71	0.27444706	86.38402157	-58.11682469	-3.94338408	-16.03017245
0.72	0.27434265	87.70787157	-58.14400687	-3.73511267	-15.77890278
0.73	0.27427318	89.03154577	-58.17843369	-3.50359166	-15.49517473
0.74	0.27424053	90.34705039	-58.21606424	-3.25075081	-15.18218772
0.75	0.27425003	91.63439166	-58.26145187	-2.97465871	-14.85854044
0.76	0.27430689	92.88843166	-58.31539573	-2.67660461	-14.52457803
0.77	0.2744098	94.09643245	-58.38230141	-2.3553236	-14.19120083
0.78	0.27456002	95.24722628	-58.46609601	-2.01085641	-13.86767797
0.79	0.27475627	96.33489598	-58.57187536	-1.64284626	-13.55697601
0.8	0.27499388	97.34974042	-58.70543643	-1.25041826	-13.26769422
0.81	0.27526983	98.28564948	-58.87233561	-0.83313941	-13.00396912
0.82	0.27558063	99.14103283	-59.07723744	-0.3911157	-12.76442033
0.83	0.27592113	99.91109525	-59.32433072	0.07580233	-12.55201839
0.84	0.27628755	100.5941379	-59.61575499	0.56670085	-12.36605003
0.85	0.27667418	101.1837247	-59.95559477	1.08270778	-12.21196551
0.86	0.27707903	101.6874763	-60.33821412	1.61931013	-12.07661356
0.87	0.2775027	102.1003668	-60.76315689	2.17583447	-11.96441486
0.88	0.27793538	102.4235932	-61.22421475	2.74920568	-11.87156324
0.89	0.27837701	102.6613165	-61.71336725	3.33561788	-11.79030028
0.9	0.27882529	102.7836927	-62.22492572	3.9342366	-11.75760916
0.91	0.27928294	102.8556941	-62.7393199	4.53295195	-11.68707048
0.92	0.27974916	102.8715544	-63.24683189	5.12803135	-11.58645572
0.93	0.28020992	102.8265188	-63.73677501	5.71669807	-11.46196144
0.94	0.28066848	102.6436803	-64.20562237	6.301424	-11.4137621
0.95	0.28112065	102.41548	-64.63125155	6.86841433	-11.32138687
0.96	0.28157086	102.1187017	-65.00430024	7.41417565	-11.21642019
0.97	0.28199636	101.7490918	-65.31977065	7.93927762	-11.10471944
0.98	0.28240981	101.3099606	-65.56482542	8.43614268	-10.98368262
0.99	0.28281246	100.7918378	-65.73234406	8.90195907	-10.86342406
1	0.28319092	100.2017604	-65.81726494	9.33504992	-10.73722449
1.01	0.28355113	99.53089466	-65.81516547	9.73256445	-10.61597747
1.02	0.28389291	98.77644854	-65.72304613	10.09291508	-10.50244336
1.03	0.28421705	97.93726779	-65.53929365	10.41482081	-10.3974182
1.04	0.28452189	97.00948603	-65.26470274	10.69850166	-10.30472528
1.05	0.28481699	95.98859283	-64.89863224	10.94256599	-10.22971057
1.06	0.28509823	94.87766379	-64.44347687	11.14785771	-10.16738853
1.07	0.28537092	93.67315077	-63.90319032	11.31580071	-10.12156311
1.08	0.28563671	92.37348307	-63.28184563	11.44809026	-10.09403885
1.09	0.28589958	90.98185781	-62.58247756	11.5454759	-10.08074136
1.1	0.28615986	89.50162192	-61.8093107	11.60974761	-10.07838546
1.11	0.28641754	87.93645552	-60.96763945	11.64351459	-10.08372677
1.12	0.286676	86.28235545	-60.06252072	11.64925369	-10.10325135
1.13	0.28693688	84.54993264	-59.09796329	11.62846605	-10.12605971
1.14	0.28719737	82.7399023	-58.07702241	11.58298033	-10.15410713
1.15	0.28745867	80.85754093	-57.00274488	11.51413635	-10.18386411
1.16	0.28772269	78.91197228	-55.87712004	11.42242551	-10.20752458
1.17	0.28798865	76.90631733	-54.70198867	11.30880504	-10.22473131
1.18	0.28825927	74.83855921	-53.4785061	11.173814	-10.24150087
1.19	0.28852753	72.72786223	-52.2053549	11.01632763	-10.23775058
1.2	0.28879905	70.5677955	-50.88353754	10.83663879	-10.22464329
1.21	0.28907453	68.35932441	-49.51157406	10.63376913	-10.20395245
1.22	0.28935313	66.10868071	-48.08828278	10.40660042	-10.17111063
1.23	0.28963353	63.81469378	-46.61301089	10.15492533	-10.12967045
1.24	0.28991469	61.47934539	-45.08439992	9.87750303	-10.08021896
1.25	0.29019617	59.1087322	-43.50158105	9.57334523	-10.01742022
1.26	0.29047521	56.69724652	-41.86499589	9.24302442	-9.95019651
1.27	0.2907489	54.2435291	-40.17488627	8.88656952	-9.88226452
1.28	0.29101363	51.75972933	-38.433052	8.50421628	-9.80183523
1.29	0.29126497	49.24658243	-36.6423483	8.09736183	-9.71111969
1.3	0.29149722	46.70595181	-34.80713415	7.66840654	-9.6115435
1.31	0.29170783	44.16469918	-32.93372363	7.2187616	-9.47689585
1.32	0.29188594	41.62187214	-31.03145652	6.75389246	-9.31618826
1.33	0.29202859	39.10786279	-29.11061107	6.27707154	-9.10173358
1.34	0.29212993	36.64453622	-27.18458656	5.793615	-8.82184743
1.35	0.29217943	34.2484068	-25.27107735	5.31175001	-8.47395755
1.36	0.29217191	31.95012348	-23.38850194	4.83901948	-8.03919486
1.37	0.29210443	29.76947443	-21.55462959	4.38195248	-7.51810103
1.38	0.29197428	27.72945657	-19.7891725	3.948432	-6.90695578
